<?xml version="1.0" encoding="UTF-8" standalone="no"?><svg xmlns="http://www.w3.org/2000/svg" xmlns:xlink="http://www.w3.org/1999/xlink" contentScriptType="application/ecmascript" contentStyleType="text/css" height="367px" preserveAspectRatio="none" style="width:384px;height:367px;" version="1.1" viewBox="0 0 384 367" width="384px" zoomAndPan="magnify"><defs><filter height="300%" id="f1v84wdeti43kt" width="300%" x="-1" y="-1"><feGaussianBlur result="blurOut" stdDeviation="2.0"/><feColorMatrix in="blurOut" result="blurOut2" type="matrix" values="0 0 0 0 0 0 0 0 0 0 0 0 0 0 0 0 0 0 .4 0"/><feOffset dx="4.0" dy="4.0" in="blurOut2" result="blurOut3"/><feBlend in="SourceGraphic" in2="blurOut3" mode="normal"/></filter></defs><g><line style="stroke:#A80036;stroke-width:1.0;stroke-dasharray:5.0,5.0;" x1="25" x2="25" y1="88.2969" y2="283.0938"/><line style="stroke:#A80036;stroke-width:1.0;stroke-dasharray:5.0,5.0;" x1="130" x2="130" y1="88.2969" y2="283.0938"/><line style="stroke:#A80036;stroke-width:1.0;stroke-dasharray:5.0,5.0;" x1="185" x2="185" y1="88.2969" y2="283.0938"/><line style="stroke:#A80036;stroke-width:1.0;stroke-dasharray:5.0,5.0;" x1="236" x2="236" y1="88.2969" y2="283.0938"/><line style="stroke:#A80036;stroke-width:1.0;stroke-dasharray:5.0,5.0;" x1="286" x2="286" y1="88.2969" y2="283.0938"/><line style="stroke:#A80036;stroke-width:1.0;stroke-dasharray:5.0,5.0;" x1="345" x2="345" y1="88.2969" y2="283.0938"/><text fill="#000000" font-family="sans-serif" font-size="14" lengthAdjust="spacing" textLength="35" x="5" y="84.9951">Foo1</text><ellipse cx="25.5" cy="15" fill="#FEFECE" filter="url(#f1v84wdeti43kt)" rx="8" ry="8" style="stroke:#A80036;stroke-width:2.0;"/><path d="M25.5,23 L25.5,50 M12.5,31 L38.5,31 M25.5,50 L12.5,65 M25.5,50 L38.5,65 " fill="none" filter="url(#f1v84wdeti43kt)" style="stroke:#A80036;stroke-width:2.0;"/><text fill="#000000" font-family="sans-serif" font-size="14" lengthAdjust="spacing" textLength="35" x="5" y="295.0889">Foo1</text><ellipse cx="25.5" cy="308.3906" fill="#FEFECE" filter="url(#f1v84wdeti43kt)" rx="8" ry="8" style="stroke:#A80036;stroke-width:2.0;"/><path d="M25.5,316.3906 L25.5,343.3906 M12.5,324.3906 L38.5,324.3906 M25.5,343.3906 L12.5,358.3906 M25.5,343.3906 L38.5,358.3906 " fill="none" filter="url(#f1v84wdeti43kt)" style="stroke:#A80036;stroke-width:2.0;"/><text fill="#000000" font-family="sans-serif" font-size="14" lengthAdjust="spacing" textLength="34" x="110.5" y="84.9951">Foo2</text><path d="M110,44 L110,68 M110,56 L127,56 " fill="none" filter="url(#f1v84wdeti43kt)" style="stroke:#A80036;stroke-width:2.0;"/><ellipse cx="139" cy="56" fill="#FEFECE" filter="url(#f1v84wdeti43kt)" rx="12" ry="12" style="stroke:#A80036;stroke-width:2.0;"/><text fill="#000000" font-family="sans-serif" font-size="14" lengthAdjust="spacing" textLength="34" x="110.5" y="295.0889">Foo2</text><path d="M110,302.3906 L110,326.3906 M110,314.3906 L127,314.3906 " fill="none" filter="url(#f1v84wdeti43kt)" style="stroke:#A80036;stroke-width:2.0;"/><ellipse cx="139" cy="314.3906" fill="#FEFECE" filter="url(#f1v84wdeti43kt)" rx="12" ry="12" style="stroke:#A80036;stroke-width:2.0;"/><text fill="#000000" font-family="sans-serif" font-size="14" lengthAdjust="spacing" textLength="35" x="165" y="84.9951">Foo3</text><ellipse cx="185.5" cy="56" fill="#FEFECE" filter="url(#f1v84wdeti43kt)" rx="12" ry="12" style="stroke:#A80036;stroke-width:2.0;"/><polygon fill="#A80036" points="181.5,44,187.5,39,185.5,44,187.5,49,181.5,44" style="stroke:#A80036;stroke-width:1.0;"/><text fill="#000000" font-family="sans-serif" font-size="14" lengthAdjust="spacing" textLength="35" x="165" y="295.0889">Foo3</text><ellipse cx="185.5" cy="314.3906" fill="#FEFECE" filter="url(#f1v84wdeti43kt)" rx="12" ry="12" style="stroke:#A80036;stroke-width:2.0;"/><polygon fill="#A80036" points="181.5,302.3906,187.5,297.3906,185.5,302.3906,187.5,307.3906,181.5,302.3906" style="stroke:#A80036;stroke-width:1.0;"/><text fill="#000000" font-family="sans-serif" font-size="14" lengthAdjust="spacing" textLength="34" x="216" y="84.9951">Foo4</text><ellipse cx="236" cy="56" fill="#FEFECE" filter="url(#f1v84wdeti43kt)" rx="12" ry="12" style="stroke:#A80036;stroke-width:2.0;"/><line style="stroke:#A80036;stroke-width:2.0;" x1="224" x2="248" y1="70" y2="70"/><text fill="#000000" font-family="sans-serif" font-size="14" lengthAdjust="spacing" textLength="34" x="216" y="295.0889">Foo4</text><ellipse cx="236" cy="314.3906" fill="#FEFECE" filter="url(#f1v84wdeti43kt)" rx="12" ry="12" style="stroke:#A80036;stroke-width:2.0;"/><line style="stroke:#A80036;stroke-width:2.0;" x1="224" x2="248" y1="328.3906" y2="328.3906"/><text fill="#000000" font-family="sans-serif" font-size="14" lengthAdjust="spacing" textLength="35" x="266" y="84.9951">Foo5</text><path d="M268.5,36 C268.5,26 286.5,26 286.5,26 C286.5,26 304.5,26 304.5,36 L304.5,62 C304.5,72 286.5,72 286.5,72 C286.5,72 268.5,72 268.5,62 L268.5,36 " fill="#FEFECE" filter="url(#f1v84wdeti43kt)" style="stroke:#000000;stroke-width:1.5;"/><path d="M268.5,36 C268.5,46 286.5,46 286.5,46 C286.5,46 304.5,46 304.5,36 " fill="none" style="stroke:#000000;stroke-width:1.5;"/><text fill="#000000" font-family="sans-serif" font-size="14" lengthAdjust="spacing" textLength="35" x="266" y="295.0889">Foo5</text><path d="M268.5,308.3906 C268.5,298.3906 286.5,298.3906 286.5,298.3906 C286.5,298.3906 304.5,298.3906 304.5,308.3906 L304.5,334.3906 C304.5,344.3906 286.5,344.3906 286.5,344.3906 C286.5,344.3906 268.5,344.3906 268.5,334.3906 L268.5,308.3906 " fill="#FEFECE" filter="url(#f1v84wdeti43kt)" style="stroke:#000000;stroke-width:1.5;"/><path d="M268.5,308.3906 C268.5,318.3906 286.5,318.3906 286.5,318.3906 C286.5,318.3906 304.5,318.3906 304.5,308.3906 " fill="none" style="stroke:#000000;stroke-width:1.5;"/><rect fill="#FEFECE" filter="url(#f1v84wdeti43kt)" height="30.2969" style="stroke:#A80036;stroke-width:1.5;" width="49" x="321" y="49"/><rect fill="#FEFECE" filter="url(#f1v84wdeti43kt)" height="30.2969" style="stroke:#A80036;stroke-width:1.5;" width="49" x="317" y="53"/><text fill="#000000" font-family="sans-serif" font-size="14" lengthAdjust="spacing" textLength="35" x="324" y="72.9951">Foo6</text><rect fill="#FEFECE" filter="url(#f1v84wdeti43kt)" height="30.2969" style="stroke:#A80036;stroke-width:1.5;" width="49" x="321" y="282.0938"/><rect fill="#FEFECE" filter="url(#f1v84wdeti43kt)" height="30.2969" style="stroke:#A80036;stroke-width:1.5;" width="49" x="317" y="286.0938"/><text fill="#000000" font-family="sans-serif" font-size="14" lengthAdjust="spacing" textLength="35" x="324" y="306.0889">Foo6</text><polygon fill="#A80036" points="118.5,115.4297,128.5,119.4297,118.5,123.4297,122.5,119.4297" style="stroke:#A80036;stroke-width:1.0;"/><line style="stroke:#A80036;stroke-width:1.0;" x1="25.5" x2="124.5" y1="119.4297" y2="119.4297"/><text fill="#000000" font-family="sans-serif" font-size="13" lengthAdjust="spacing" textLength="81" x="32.5" y="114.3638">To boundary</text><polygon fill="#A80036" points="173.5,144.5625,183.5,148.5625,173.5,152.5625,177.5,148.5625" style="stroke:#A80036;stroke-width:1.0;"/><line style="stroke:#A80036;stroke-width:1.0;" x1="25.5" x2="179.5" y1="148.5625" y2="148.5625"/><text fill="#000000" font-family="sans-serif" font-size="13" lengthAdjust="spacing" textLength="64" x="32.5" y="143.4966">To control</text><polygon fill="#A80036" points="224,173.6953,234,177.6953,224,181.6953,228,177.6953" style="stroke:#A80036;stroke-width:1.0;"/><line style="stroke:#A80036;stroke-width:1.0;" x1="25.5" x2="230" y1="177.6953" y2="177.6953"/><text fill="#000000" font-family="sans-serif" font-size="13" lengthAdjust="spacing" textLength="57" x="32.5" y="172.6294">To entity</text><polygon fill="#A80036" points="274.5,202.8281,284.5,206.8281,274.5,210.8281,278.5,206.8281" style="stroke:#A80036;stroke-width:1.0;"/><line style="stroke:#A80036;stroke-width:1.0;" x1="25.5" x2="280.5" y1="206.8281" y2="206.8281"/><text fill="#000000" font-family="sans-serif" font-size="13" lengthAdjust="spacing" textLength="80" x="32.5" y="201.7622">To database</text><polygon fill="#A80036" points="333.5,231.9609,343.5,235.9609,333.5,239.9609,337.5,235.9609" style="stroke:#A80036;stroke-width:1.0;"/><line style="stroke:#A80036;stroke-width:1.0;" x1="25.5" x2="339.5" y1="235.9609" y2="235.9609"/><text fill="#000000" font-family="sans-serif" font-size="13" lengthAdjust="spacing" textLength="87" x="32.5" y="230.895">To collections</text><polygon fill="#A80036" points="36.5,261.0938,26.5,265.0938,36.5,269.0938,32.5,265.0938" style="stroke:#A80036;stroke-width:1.0;"/><line style="stroke:#A80036;stroke-width:1.0;" x1="30.5" x2="344.5" y1="265.0938" y2="265.0938"/><text fill="#000000" font-family="sans-serif" font-size="13" lengthAdjust="spacing" textLength="24" x="42.5" y="260.0278">Bye</text><!--MD5=[6e99c43d555b6489514a3578878ba8bd]
@startuml
actor Foo1
boundary Foo2
control Foo3
entity Foo4
database Foo5
collections Foo6
Foo1 -> Foo2 : To boundary
Foo1 -> Foo3 : To control
Foo1 -> Foo4 : To entity
Foo1 -> Foo5 : To database
Foo1 -> Foo6 : To collections
Foo6 -> Foo1 : Bye
@enduml

PlantUML version 1.2021.01beta3(Unknown compile time)
(GPL source distribution)
Java Runtime: Java(TM) SE Runtime Environment
JVM: Java HotSpot(TM) 64-Bit Server VM
Default Encoding: UTF-8
Language: en
Country: US
--></g></svg>